<svg width="100" height="100" xmlns="http://www.w3.org/2000/svg">
 <!-- Created with SVG Editor - http://github.com/mzalive/SVG Editor/ -->
 <g>
  <title>Layer 1</title>
  <path id="svg_14" d="m68.150192,21.557899c5.868607,-0.181164 16.431877,2.537453 14.0765,-2.109268c-4.08329,-2.851715 -15.138718,-1.495842 -13.881851,1.827286l-0.143532,0.207989l-0.051117,0.073994l0,0zm-14.195107,-6.16417c5.601383,3.86637 18.220657,4.14288 27.696159,5.582791c4.388359,1.0144 22.180267,1.673708 15.405609,-1.423128c-9.674568,-2.584354 -21.573921,-3.2082 -32.46656,-4.61747c-3.506901,-0.332076 -7.575035,-0.462515 -10.635208,0.457807zm28.971024,4.088977c4.272881,-5.909903 8.545769,-11.819815 12.818657,-17.729721c-5.227211,-2.865325 -16.752083,-1.622728 -15.155434,2.196734c-3.322014,4.594587 -6.643738,9.189304 -9.965767,13.783893m4.603828,3.109673c-18.663593,26.356339 -40.367485,52.402847 -67.488834,77.555115m62.561008,-78.240747c-18.854458,24.80316 -38.149651,49.632364 -64.175331,73.396845c-0.358072,1.841133 -12.243223,7.361633 -1.468254,5.937248c3.350736,-0.647118 9.073262,-0.207115 9.693813,-2.105453c25.424689,-24.761841 47.468677,-50.085979 66.095668,-75.810591" stroke-opacity="null" stroke-width="null" stroke="#000" fill="#000000"/>
 </g>
</svg>